<svg xmlns="http://www.w3.org/2000/svg" xmlns:xlink="http://www.w3.org/1999/xlink" preserveAspectRatio="xMidYMid" width="54.94" height="56.94" viewBox="0 0 54.94 56.94">
  <defs>
    <style>
      .cls-1 {
        fill: #000;
        fill-rule: evenodd;
      }
    </style>
  </defs>
  <path d="M54.620,43.040 L49.021,48.317 L50.341,55.756 C50.407,56.130 50.257,56.509 49.953,56.736 C49.777,56.867 49.568,56.933 49.357,56.933 C49.203,56.933 49.048,56.898 48.906,56.825 L41.950,53.291 L34.994,56.825 C34.657,56.998 34.251,56.963 33.947,56.736 C33.643,56.509 33.493,56.130 33.559,55.756 L34.879,48.317 L29.280,43.040 C29.000,42.777 28.896,42.376 29.012,42.008 C29.127,41.638 29.444,41.372 29.825,41.319 L37.592,40.228 L41.060,33.436 C41.401,32.767 42.495,32.767 42.837,33.436 L46.305,40.228 L54.072,41.319 C54.452,41.372 54.769,41.640 54.885,42.008 C55.001,42.375 54.897,42.776 54.620,43.040 ZM45.511,42.140 C45.189,42.095 44.908,41.895 44.761,41.605 L41.946,36.091 L39.131,41.605 C38.984,41.895 38.703,42.095 38.381,42.140 L32.164,43.013 L36.637,47.228 C36.883,47.460 36.997,47.801 36.937,48.133 L35.874,54.129 L41.496,51.272 C41.637,51.200 41.792,51.164 41.947,51.164 C42.102,51.164 42.256,51.200 42.398,51.272 L48.020,54.129 L46.957,48.133 C46.898,47.801 47.011,47.460 47.257,47.228 L51.728,43.013 L45.511,42.140 ZM20.662,37.716 L13.813,45.728 C13.616,45.960 13.337,46.079 13.054,46.079 C12.845,46.079 12.635,46.015 12.456,45.879 L7.890,42.445 C7.449,42.112 7.359,41.484 7.691,41.043 C8.021,40.599 8.647,40.511 9.088,40.843 L12.905,43.713 L19.146,36.414 C19.504,35.993 20.135,35.945 20.554,36.304 C20.973,36.664 21.021,37.297 20.662,37.716 ZM13.054,17.030 C12.845,17.030 12.635,16.965 12.456,16.829 L7.890,13.395 C7.449,13.063 7.359,12.435 7.691,11.993 C8.021,11.550 8.647,11.463 9.088,11.793 L12.905,14.663 L19.146,7.363 C19.504,6.943 20.135,6.895 20.553,7.255 C20.972,7.616 21.021,8.247 20.662,8.665 L13.813,16.679 C13.616,16.910 13.337,17.030 13.054,17.030 ZM20.662,22.689 L13.813,30.703 C13.616,30.934 13.337,31.054 13.054,31.054 C12.845,31.054 12.635,30.989 12.456,30.853 L7.890,27.419 C7.449,27.087 7.359,26.459 7.691,26.017 C8.021,25.573 8.647,25.487 9.088,25.817 L12.905,28.688 L19.146,21.387 C19.504,20.967 20.135,20.919 20.553,21.279 C20.972,21.640 21.021,22.271 20.662,22.689 ZM44.944,14.026 L26.966,14.026 C26.414,14.026 25.967,13.578 25.967,13.024 C25.967,12.470 26.414,12.022 26.966,12.022 L44.944,12.022 C45.497,12.022 45.943,12.470 45.943,13.024 C45.943,13.578 45.497,14.026 44.944,14.026 ZM44.944,28.050 L26.966,28.050 C26.414,28.050 25.967,27.602 25.967,27.048 C25.967,26.494 26.414,26.046 26.966,26.046 L44.944,26.046 C45.497,26.046 45.943,26.494 45.943,27.048 C45.943,27.602 45.497,28.050 44.944,28.050 ZM52.935,37.146 C52.382,37.146 51.936,36.698 51.936,36.144 L51.936,12.198 C51.936,6.577 47.376,2.005 41.772,2.005 L12.160,2.005 C6.555,2.005 1.996,6.577 1.996,12.198 L1.996,41.898 C1.996,47.519 6.555,52.091 12.160,52.091 L26.966,52.091 C27.518,52.091 27.965,52.538 27.965,53.092 C27.965,53.647 27.518,54.094 26.966,54.094 L12.160,54.094 C5.454,54.094 -0.001,48.623 -0.001,41.898 L-0.001,12.198 C-0.001,5.473 5.454,0.001 12.160,0.001 L41.772,0.001 C48.478,0.001 53.933,5.473 53.933,12.198 L53.933,36.144 C53.933,36.698 53.487,37.146 52.935,37.146 Z" class="cls-1"/>
</svg>
