<svg xmlns="http://www.w3.org/2000/svg" xmlns:xlink="http://www.w3.org/1999/xlink" preserveAspectRatio="xMidYMid" width="79" height="66" viewBox="0 0 79 66">
  <defs>
    <style>
      .cls-3 {
        stroke: #fff;
        stroke-linejoin: round;
        stroke-opacity: 0.54;
        stroke-width: 1px;
        fill: none;
        fill-rule: evenodd;
      }
    </style>
  </defs>
  <path d="M69.747,26.623 C61.438,32.417 55.131,36.916 50.825,40.134 C49.381,41.224 48.209,42.080 47.311,42.693 C46.410,43.308 45.214,43.933 43.720,44.574 C42.225,45.215 40.832,45.530 39.540,45.530 L39.502,45.530 L39.464,45.530 C38.173,45.530 36.779,45.215 35.285,44.574 C33.790,43.933 32.593,43.308 31.694,42.693 C30.795,42.080 29.624,41.224 28.179,40.134 C24.759,37.545 18.465,33.041 9.295,26.623 C7.852,25.629 6.572,24.497 5.458,23.216 L5.458,54.297 C5.458,56.021 6.053,57.496 7.244,58.726 C8.434,59.950 9.865,60.566 11.537,60.566 L67.467,60.566 C69.139,60.566 70.570,59.950 71.760,58.726 C72.951,57.496 73.546,56.021 73.546,54.297 L73.546,23.216 C72.457,24.469 71.191,25.604 69.747,26.623 L69.747,26.623 ZM71.742,7.284 C70.538,6.057 69.113,5.446 67.467,5.446 L11.537,5.446 C9.587,5.446 8.086,6.124 7.035,7.483 C5.983,8.835 5.458,10.534 5.458,12.568 C5.458,14.213 6.155,15.992 7.548,17.911 C8.941,19.829 10.422,21.339 11.993,22.437 C12.854,23.060 15.451,24.924 19.783,28.008 C24.114,31.102 27.432,33.487 29.737,35.158 C29.990,35.340 30.529,35.738 31.352,36.354 C32.175,36.962 32.859,37.460 33.404,37.838 C33.948,38.215 34.607,38.640 35.380,39.112 C36.152,39.582 36.881,39.935 37.564,40.166 C38.248,40.406 38.881,40.518 39.464,40.518 L39.502,40.518 L39.540,40.518 C40.122,40.518 40.756,40.406 41.439,40.166 C42.124,39.935 42.852,39.582 43.625,39.112 C44.397,38.640 45.056,38.215 45.600,37.838 C46.145,37.460 46.829,36.962 47.652,36.354 C48.475,35.738 49.013,35.340 49.267,35.158 C51.598,33.487 57.525,29.245 67.049,22.437 C68.897,21.103 70.443,19.496 71.684,17.615 C72.925,15.738 73.546,13.771 73.546,11.707 C73.546,9.987 72.944,8.508 71.742,7.284 Z" class="cls-3"/>
</svg>
