<svg xmlns="http://www.w3.org/2000/svg" xmlns:xlink="http://www.w3.org/1999/xlink" preserveAspectRatio="xMidYMid" width="44" height="63" viewBox="0 0 44 63">
  <defs>
    <style>
      .cls-2 {
        fill: #fff;
        fill-rule: evenodd;
      }
    </style>
  </defs>
  <path d="M39.599,37.506 L22.000,62.995 L4.374,37.471 C-2.202,28.682 -1.246,14.176 6.443,6.466 C10.599,2.299 16.122,0.004 22.000,0.004 C27.876,0.004 33.401,2.299 37.556,6.466 C45.245,14.176 46.201,28.682 39.599,37.506 ZM35.933,8.092 C32.211,4.361 27.263,2.305 22.000,2.305 C16.736,2.305 11.788,4.361 8.067,8.092 C1.126,15.051 0.272,28.152 6.236,36.125 L22.000,58.952 L37.738,36.162 C43.729,28.152 42.874,15.051 35.933,8.092 ZM22.203,29.914 C17.776,29.914 14.172,26.301 14.172,21.861 C14.172,17.422 17.776,13.809 22.203,13.809 C26.630,13.809 30.233,17.422 30.233,21.861 C30.233,26.301 26.630,29.914 22.203,29.914 ZM22.203,16.109 C19.040,16.109 16.467,18.690 16.467,21.861 C16.467,25.033 19.040,27.613 22.203,27.613 C25.366,27.613 27.939,25.033 27.939,21.861 C27.939,18.690 25.366,16.109 22.203,16.109 Z" class="cls-2"/>
</svg>
