<svg xmlns="http://www.w3.org/2000/svg" xmlns:xlink="http://www.w3.org/1999/xlink" preserveAspectRatio="xMidYMid" width="74" height="74" viewBox="0 0 74 74">
  <defs>
    <style>
      .cls-1 {
        stroke: #fff;
        stroke-linejoin: round;
        stroke-opacity: 0.54;
        stroke-width: 1px;
        fill: none;
        fill-rule: evenodd;
      }
    </style>
  </defs>
  <path d="M68.400,54.377 C68.221,53.840 67.086,53.052 64.996,52.002 C64.428,51.676 63.622,51.226 62.578,50.661 C61.532,50.091 60.585,49.571 59.733,49.089 C58.883,48.616 58.083,48.149 57.337,47.703 C57.218,47.616 56.845,47.354 56.218,46.918 C55.591,46.487 55.060,46.164 54.627,45.955 C54.194,45.745 53.769,45.641 53.351,45.641 C52.754,45.641 52.007,46.067 51.112,46.918 C50.216,47.770 49.395,48.696 48.648,49.698 C47.902,50.699 47.110,51.624 46.275,52.472 C45.438,53.325 44.752,53.751 44.215,53.751 C43.946,53.751 43.610,53.677 43.207,53.525 C42.804,53.375 42.497,53.252 42.289,53.148 C42.080,53.042 41.721,52.832 41.214,52.521 C40.706,52.206 40.422,52.035 40.363,52.002 C36.272,49.732 32.764,47.134 29.838,44.206 C26.911,41.282 24.314,37.771 22.045,33.679 C22.015,33.621 21.844,33.335 21.530,32.826 C21.216,32.322 21.007,31.962 20.902,31.753 C20.798,31.546 20.671,31.240 20.522,30.834 C20.372,30.432 20.298,30.095 20.298,29.825 C20.298,29.288 20.724,28.602 21.575,27.768 C22.425,26.931 23.350,26.141 24.351,25.392 C25.351,24.646 26.277,23.823 27.128,22.928 C27.979,22.032 28.405,21.285 28.405,20.686 C28.405,20.271 28.300,19.841 28.091,19.410 C27.882,18.981 27.561,18.448 27.128,17.819 C26.695,17.193 26.434,16.822 26.345,16.700 C25.897,15.957 25.433,15.155 24.956,14.302 C24.478,13.454 23.955,12.506 23.388,11.457 C22.821,10.415 22.373,9.606 22.045,9.040 C20.999,6.949 20.209,5.813 19.671,5.636 C19.462,5.543 19.148,5.499 18.731,5.499 C17.924,5.499 16.872,5.652 15.573,5.948 C14.275,6.246 13.251,6.561 12.505,6.888 C11.012,7.518 9.429,9.340 7.758,12.354 C6.235,15.165 5.473,17.941 5.473,20.686 C5.473,21.495 5.525,22.278 5.630,23.037 C5.735,23.804 5.922,24.662 6.190,25.615 C6.459,26.572 6.675,27.281 6.840,27.743 C7.003,28.206 7.310,29.036 7.758,30.228 C8.205,31.424 8.475,32.156 8.564,32.426 C9.609,35.354 10.848,37.964 12.281,40.263 C14.640,44.089 17.857,48.040 21.933,52.113 C26.008,56.193 29.957,59.410 33.780,61.770 C36.078,63.204 38.691,64.444 41.617,65.490 C41.886,65.578 42.617,65.847 43.812,66.293 C45.005,66.743 45.834,67.050 46.298,67.212 C46.760,67.379 47.469,67.595 48.425,67.862 C49.380,68.132 50.239,68.319 51.000,68.421 C51.762,68.525 52.545,68.581 53.351,68.581 C56.098,68.581 58.875,67.818 61.682,66.293 C64.698,64.621 66.519,63.039 67.146,61.547 C67.474,60.801 67.788,59.776 68.086,58.477 C68.385,57.178 68.534,56.126 68.534,55.319 C68.534,54.903 68.490,54.587 68.400,54.377 L68.400,54.377 Z" class="cls-1"/>
</svg>
